<?xml version="1.0" encoding="UTF-8" standalone="no"?>
<!-- Created with Inkscape (http://www.inkscape.org/) -->

<svg
   xmlns:dc="http://purl.org/dc/elements/1.1/"
   xmlns:cc="http://creativecommons.org/ns#"
   xmlns:rdf="http://www.w3.org/1999/02/22-rdf-syntax-ns#"
   xmlns:svg="http://www.w3.org/2000/svg"
   xmlns="http://www.w3.org/2000/svg"
   xmlns:sodipodi="http://sodipodi.sourceforge.net/DTD/sodipodi-0.dtd"
   xmlns:inkscape="http://www.inkscape.org/namespaces/inkscape"
   width="369.76147"
   height="511.99994"
   viewBox="0 0 97.832722 135.46665"
   version="1.1"
   id="svg8"
   sodipodi:docname="logo restaurant.svg"
   inkscape:version="0.92.3 (2405546, 2018-03-11)">
  <defs
     id="defs2">
    <inkscape:path-effect
       effect="skeletal"
       id="path-effect843"
       is_visible="true"
       pattern="m 103.56548,21.252976 c 0,-2.76 2.24,-5 5,-5 2.76,0 5,2.24 5,5 0,2.76 -2.24,5 -5,5 -2.76,0 -5,-2.24 -5,-5 z"
       copytype="single_stretched"
       prop_scale="0.73285304"
       scale_y_rel="false"
       spacing="0"
       normal_offset="0"
       tang_offset="0"
       prop_units="false"
       vertical_pattern="false"
       fuse_tolerance="0" />
    <inkscape:path-effect
       effect="skeletal"
       id="path-effect839"
       is_visible="true"
       pattern="m 88.824406,4.9999999 c 0,-2.7599999 2.24,-4.999999937509215 5,-4.999999937509215 C 96.584402,-3.7509214e-8 98.824402,2.24 98.824402,4.9999999 98.824402,7.7600003 96.584402,10 93.824406,10 c -2.76,0 -5,-2.2399997 -5,-5.0000001 z"
       copytype="single_stretched"
       prop_scale="0.94006273"
       scale_y_rel="false"
       spacing="0"
       normal_offset="0"
       tang_offset="0"
       prop_units="false"
       vertical_pattern="false"
       fuse_tolerance="0" />
    <inkscape:path-effect
       effect="skeletal"
       id="path-effect835"
       is_visible="true"
       pattern="m 92.982144,3.8660715 c 0,-2.76 2.24,-5 4.999998,-5 2.759998,0 4.999998,2.24 4.999998,5 0,2.7599998 -2.24,4.9999998 -4.999998,4.9999998 -2.759998,0 -4.999998,-2.24 -4.999998,-4.9999998 z"
       copytype="single_stretched"
       prop_scale="0.93281079"
       scale_y_rel="false"
       spacing="0"
       normal_offset="0"
       tang_offset="0"
       prop_units="false"
       vertical_pattern="false"
       fuse_tolerance="0" />
  </defs>
  <sodipodi:namedview
     id="base"
     pagecolor="#ffffff"
     bordercolor="#666666"
     borderopacity="1.0"
     inkscape:pageopacity="0.0"
     inkscape:pageshadow="2"
     inkscape:zoom="0.98994948"
     inkscape:cx="82.132942"
     inkscape:cy="216.35125"
     inkscape:document-units="px"
     inkscape:current-layer="layer1"
     showgrid="false"
     units="px"
     inkscape:window-width="1366"
     inkscape:window-height="694"
     inkscape:window-x="0"
     inkscape:window-y="35"
     inkscape:window-maximized="1"
     inkscape:snap-global="false"
     fit-margin-top="0"
     fit-margin-left="0"
     fit-margin-right="0"
     fit-margin-bottom="0" />
  <metadata
     id="metadata5">
    <rdf:RDF>
      <cc:Work
         rdf:about="">
        <dc:format>image/svg+xml</dc:format>
        <dc:type
           rdf:resource="http://purl.org/dc/dcmitype/StillImage" />
        <dc:title></dc:title>
      </cc:Work>
    </rdf:RDF>
  </metadata>
  <g
     inkscape:label="Capa 1"
     inkscape:groupmode="layer"
     id="layer1"
     transform="translate(0,-26.066672)">
    <path
       id="path21"
       style="opacity:1;fill:#550000;fill-opacity:1;stroke:none;stroke-width:5.29166651;stroke-linecap:round;stroke-linejoin:round;stroke-miterlimit:4;stroke-dasharray:none;stroke-opacity:1"
       d="m 36.563245,41.527768 c 3.490896,0 5.276855,16.8173 8.101051,18.8692 2.824196,2.0519 19.370286,-1.44638 20.449034,1.87366 1.078747,3.32004 -14.363563,10.215415 -15.442311,13.535455 -1.078739,3.32004 7.361343,17.975277 4.537147,20.027187 C 51.38397,97.88516 40.054141,85.329443 36.563245,85.329443 33.072348,85.329443 21.742526,97.88516 18.918331,95.83327 16.094135,93.78136 24.53422,79.126123 23.455474,75.806083 22.376728,72.486043 6.934423,65.590668 8.0131701,62.270628 c 1.0787468,-3.32005 17.6248339,0.17824 20.4490319,-1.87366 2.824195,-2.0519 4.610146,-18.8692 8.101043,-18.8692 z m 1.990397,-15.46108 c -0.810153,0.0136 -4.480038,2.47518 -6.840498,9.20273 -1.050747,3.02952 -1.667137,6.64767 -1.564664,10.74399 0.0086,0.35238 0.02278,0.70577 0.04045,1.0597 0.427062,-1.42932 0.885063,-2.80169 1.419862,-4.02641 0.412238,-0.94403 0.85204,-1.8087 1.533845,-2.62287 0.580839,-0.6936 1.507858,-1.47139 2.746898,-1.68719 0.0638,-0.79811 0.15604,-1.56782 0.275507,-2.31025 0.955982,-6.12155 3.224279,-9.80085 2.511118,-10.33036 -0.02737,-0.0203 -0.06855,-0.0302 -0.122535,-0.0293 z m 16.218844,9.64569 c -0.697971,0.0638 -3.466166,2.26766 -4.5232,7.95291 -0.444918,2.48291 -0.44139,5.36484 0.212385,8.50097 0.415481,2.00572 1.023141,3.97638 1.779651,5.98726 1.027682,-0.0438 2.097698,-0.097 3.176862,-0.14445 1.202404,-0.0528 2.399612,-0.0985 3.558186,-0.10433 -0.05583,-0.11312 -0.115285,-0.23071 -0.170424,-0.34308 -1.228277,-2.51966 -2.206173,-4.6446 -2.931807,-6.82157 -0.835214,-2.51089 -1.236525,-4.70173 -1.309211,-6.71537 -0.211559,-4.72972 1.047054,-7.90943 0.318582,-8.29712 -0.02702,-0.0144 -0.06452,-0.0195 -0.111024,-0.0152 z m -34.133051,1.15623 c -0.591023,0.004 -1.019283,2.43131 -1.743262,6.44209 -0.711782,3.94321 -1.594992,8.64814 -3.176862,14.623 0.658199,0.0195 1.322726,0.0461 1.989439,0.0754 0.990113,0.0435 1.964342,0.0909 2.91472,0.13256 2.354188,-12.52339 1.06507,-21.27897 0.01597,-21.27302 z m 43.322038,31.610075 c -1.280706,0.9998 -2.726772,1.97179 -4.187546,2.93811 -0.505423,0.33434 -0.990765,0.65408 -1.489665,0.98209 0.350462,0.94758 0.66959,1.8822 0.944221,2.81039 0.79729,2.6934 1.25859,5.27071 1.349685,7.73571 0.134641,3.19548 -0.352785,6.243109 -1.022569,8.846639 -1.774059,6.927188 -4.390999,11.275878 -3.566354,11.869788 0.543592,0.39149 4.963174,-2.48915 8.360239,-10.17665 1.270851,-2.888398 2.279528,-6.468497 2.436853,-10.520467 0.108115,-3.10819 -0.282116,-6.33123 -1.167742,-9.56846 -0.454912,-1.66259 -1.013838,-3.293 -1.652667,-4.90638 -0.0014,-0.004 -0.0029,-0.007 -0.0043,-0.0108 z m -51.964836,2.03288 c -0.04836,0.15802 -0.0861,0.2789 -0.135153,0.43962 -0.681988,2.23467 -1.320279,4.38868 -1.9055221,6.55311 -1.5694258,5.5961 -2.4238318,10.53023 -1.7094748,15.458417 0.415696,2.726 1.3896438,5.01192 2.5400779,6.77218 2.916003,4.40548 5.985072,5.17036 6.18255,4.93906 0.394893,-0.46253 -1.751521,-2.54484 -3.340976,-6.4718 -0.650836,-1.57986 -1.128873,-3.48472 -1.215271,-5.666058 -0.210944,-4.158059 0.9014,-8.070049 2.514086,-13.611579 0.523815,-1.73731 1.082269,-3.53866 1.646724,-5.37757 -1.020046,-0.68345 -2.118933,-1.40034 -3.222158,-2.13015 -0.454932,-0.30094 -0.907413,-0.60255 -1.354883,-0.90523 z m 27.136981,19.358199 c -0.100986,1.45731 -0.315225,2.805908 -0.624157,4.056108 -1.349016,5.6382 -3.979687,8.86981 -3.35249,9.46412 0.328734,0.31148 4.53027,-1.25302 7.592386,-7.95552 0.297178,-0.6607 0.569609,-1.35806 0.814637,-2.0882 -1.570354,-1.253208 -3.116962,-2.508468 -4.430376,-3.476508 z M 88.819403,49.215518 C 77.582565,49.075608 80.49128,72.424983 77.063231,107.12195 h 11.412722 c 3.81681,-35.205347 13.418567,-56.472322 1.23718,-57.849242 -0.30744,-0.0348 -0.60528,-0.0536 -0.89373,-0.0572 z M 2.642791,109.97416 C 1.183277,109.9743 1.45e-4,111.15744 0,112.61695 c 1e-6,26.9844 21.93196,48.91637 48.91635,48.91637 26.98439,0 48.916376,-21.93198 48.916376,-48.91637 -1.5e-4,-1.45951 -1.183283,-2.64265 -2.642813,-2.64279 z"
       inkscape:connector-curvature="0" />
  </g>
</svg>
