<?xml version="1.0" encoding="UTF-8" standalone="no"?>
<!-- Created with Inkscape (http://www.inkscape.org/) -->

<svg
   xmlns:dc="http://purl.org/dc/elements/1.1/"
   xmlns:cc="http://creativecommons.org/ns#"
   xmlns:rdf="http://www.w3.org/1999/02/22-rdf-syntax-ns#"
   xmlns:svg="http://www.w3.org/2000/svg"
   xmlns="http://www.w3.org/2000/svg"
   xmlns:sodipodi="http://sodipodi.sourceforge.net/DTD/sodipodi-0.dtd"
   xmlns:inkscape="http://www.inkscape.org/namespaces/inkscape"
   width="1000"
   height="1000"
   viewBox="0 0 264.58333 264.58334"
   version="1.1"
   id="svg8"
   sodipodi:docname="logo restaurant.svg"
   inkscape:version="0.92.3 (2405546, 2018-03-11)">
  <defs
     id="defs2">
    <inkscape:path-effect
       effect="skeletal"
       id="path-effect843"
       is_visible="true"
       pattern="m 103.56548,21.252976 c 0,-2.76 2.24,-5 5,-5 2.76,0 5,2.24 5,5 0,2.76 -2.24,5 -5,5 -2.76,0 -5,-2.24 -5,-5 z"
       copytype="single_stretched"
       prop_scale="0.73285304"
       scale_y_rel="false"
       spacing="0"
       normal_offset="0"
       tang_offset="0"
       prop_units="false"
       vertical_pattern="false"
       fuse_tolerance="0" />
    <inkscape:path-effect
       effect="skeletal"
       id="path-effect839"
       is_visible="true"
       pattern="m 88.824406,4.9999999 c 0,-2.7599999 2.24,-4.999999937509215 5,-4.999999937509215 C 96.584402,-3.7509214e-8 98.824402,2.24 98.824402,4.9999999 98.824402,7.7600003 96.584402,10 93.824406,10 c -2.76,0 -5,-2.2399997 -5,-5.0000001 z"
       copytype="single_stretched"
       prop_scale="0.94006273"
       scale_y_rel="false"
       spacing="0"
       normal_offset="0"
       tang_offset="0"
       prop_units="false"
       vertical_pattern="false"
       fuse_tolerance="0" />
    <inkscape:path-effect
       effect="skeletal"
       id="path-effect835"
       is_visible="true"
       pattern="m 92.982144,3.8660715 c 0,-2.76 2.24,-5 4.999998,-5 2.759998,0 4.999998,2.24 4.999998,5 0,2.7599998 -2.24,4.9999998 -4.999998,4.9999998 -2.759998,0 -4.999998,-2.24 -4.999998,-4.9999998 z"
       copytype="single_stretched"
       prop_scale="0.93281079"
       scale_y_rel="false"
       spacing="0"
       normal_offset="0"
       tang_offset="0"
       prop_units="false"
       vertical_pattern="false"
       fuse_tolerance="0" />
  </defs>
  <sodipodi:namedview
     id="base"
     pagecolor="#ffffff"
     bordercolor="#666666"
     borderopacity="1.0"
     inkscape:pageopacity="0.0"
     inkscape:pageshadow="2"
     inkscape:zoom="0.24748737"
     inkscape:cx="-152.4905"
     inkscape:cy="136.98561"
     inkscape:document-units="px"
     inkscape:current-layer="layer1"
     showgrid="false"
     units="px"
     inkscape:window-width="1366"
     inkscape:window-height="694"
     inkscape:window-x="0"
     inkscape:window-y="35"
     inkscape:window-maximized="1"
     inkscape:snap-global="false" />
  <metadata
     id="metadata5">
    <rdf:RDF>
      <cc:Work
         rdf:about="">
        <dc:format>image/svg+xml</dc:format>
        <dc:type
           rdf:resource="http://purl.org/dc/dcmitype/StillImage" />
        <dc:title></dc:title>
      </cc:Work>
    </rdf:RDF>
  </metadata>
  <g
     inkscape:label="Capa 1"
     inkscape:groupmode="layer"
     id="layer1"
     transform="translate(0,-32.41665)">
    <path
       id="path21"
       style="opacity:1;fill:#550000;fill-opacity:1;stroke:none;stroke-width:5.29166651;stroke-linecap:round;stroke-linejoin:round;stroke-miterlimit:4;stroke-dasharray:none;stroke-opacity:1"
       d="m 115.09907,91.957833 c 4.8585,0 7.34413,23.405677 11.27474,26.261437 3.93061,2.85575 26.95884,-2.01302 28.4602,2.60768 1.50136,4.62071 -19.99067,14.21744 -21.49203,18.83814 -1.50135,4.62071 10.24524,25.01732 6.31463,27.87308 -3.93061,2.85575 -19.69904,-14.61882 -24.55754,-14.61882 -4.8585,-1e-5 -20.626925,17.47457 -24.557534,14.61882 -3.930609,-2.85576 7.815987,-23.25237 6.314629,-27.87308 -1.501359,-4.6207 -22.993381,-14.21743 -21.492022,-18.83814 1.501359,-4.62071 24.529585,0.24807 28.460197,-2.60768 3.93061,-2.85576 6.41623,-26.261438 11.27473,-26.261437 z m 2.77016,-21.518154 c -1.12754,0.01896 -6.23515,3.444855 -9.52035,12.808005 -1.46239,4.216366 -2.32026,9.251982 -2.17764,14.953091 0.012,0.490426 0.0317,0.982252 0.0563,1.474846 0.59437,-1.989273 1.2318,-3.899292 1.97611,-5.603793 0.57374,-1.313884 1.18584,-2.517286 2.13475,-3.650422 0.80839,-0.96533 2.09858,-2.047833 3.82303,-2.348177 0.0888,-1.110769 0.21717,-2.182024 0.38344,-3.215309 1.3305,-8.519753 4.48743,-13.640444 3.49488,-14.377416 -0.0381,-0.02827 -0.0954,-0.04209 -0.17054,-0.04082 z m 22.57278,13.424503 c -0.97141,0.08881 -4.82408,3.156055 -6.29522,11.068576 -0.61922,3.455612 -0.61431,7.466562 0.29559,11.831322 0.57825,2.79148 1.42397,5.53417 2.47685,8.33282 1.43029,-0.0609 2.9195,-0.13506 4.42144,-0.20102 1.67346,-0.0735 3.33969,-0.13715 4.95215,-0.14521 -0.0777,-0.15744 -0.16045,-0.32109 -0.23719,-0.47749 -1.70947,-3.50677 -3.07047,-6.46417 -4.08038,-9.494 -1.16242,-3.49456 -1.72095,-6.543686 -1.82211,-9.346195 -0.29444,-6.582654 1.45725,-11.008051 0.44339,-11.547615 -0.0376,-0.02 -0.0898,-0.02711 -0.15452,-0.02119 z m -47.505104,1.609203 c -0.822563,0.0047 -1.4186,3.383794 -2.426208,8.965862 -0.990629,5.488011 -2.219849,12.036143 -4.421436,20.351733 0.916056,0.0272 1.840921,0.0641 2.768825,0.1049 1.378003,0.0605 2.7339,0.12652 4.0566,0.18449 3.27647,-17.4296 1.482325,-29.615263 0.02222,-29.606985 z M 153.2309,129.46708 c -1.78244,1.39148 -3.79502,2.74426 -5.82807,4.08916 -0.70343,0.46533 -1.37891,0.91032 -2.07326,1.36684 0.48776,1.31879 0.93191,2.61957 1.31413,3.91139 1.10964,3.74857 1.75166,7.33557 1.87844,10.76627 0.18739,4.44735 -0.49099,8.68892 -1.42317,12.31242 -2.46907,9.641 -6.11123,15.69334 -4.96352,16.51993 0.75655,0.54486 6.90756,-3.46431 11.63547,-14.16348 1.76872,-4.01996 3.17256,-9.00261 3.39152,-14.642 0.15047,-4.32585 -0.39264,-8.81156 -1.62522,-13.31702 -0.63313,-2.31394 -1.41102,-4.58308 -2.30012,-6.82852 -0.002,-0.005 -0.004,-0.01 -0.006,-0.015 z m -72.322717,2.82929 c -0.06731,0.21993 -0.119832,0.38815 -0.1881,0.61185 -0.949166,3.11013 -1.837518,6.108 -2.652035,9.12037 -2.184268,7.78845 -3.3734,14.65558 -2.379183,21.51445 0.578551,3.79395 1.934056,6.9754 3.535185,9.42526 4.058385,6.13138 8.3298,7.19592 8.604641,6.874 0.549598,-0.64373 -2.437701,-3.54181 -4.649845,-9.0072 -0.905809,-2.1988 -1.571123,-4.84991 -1.691368,-7.88582 -0.293584,-5.78702 1.254535,-11.23158 3.499011,-18.94407 0.729025,-2.41793 1.50626,-4.92498 2.291848,-7.4843 -1.419662,-0.95121 -2.949051,-1.94895 -4.484479,-2.96467 -0.633156,-0.41885 -1.262904,-0.83862 -1.885675,-1.25987 z m 37.768237,26.94202 c -0.14055,2.02823 -0.43872,3.90516 -0.86868,5.64514 -1.87751,7.84703 -5.53878,12.34466 -4.66587,13.1718 0.45752,0.43352 6.30506,-1.7439 10.5668,-11.07219 0.4136,-0.91954 0.79276,-1.89009 1.13378,-2.90628 -2.18556,-1.74416 -4.33807,-3.49119 -6.16603,-4.83847 z m 69.15082,-56.58104 c -15.63901,-0.19472 -11.59078,32.30205 -16.3618,80.59198 h 15.88379 c 5.31211,-48.99747 18.67545,-78.59604 1.72186,-80.5124 -0.42788,-0.0484 -0.84241,-0.0746 -1.24385,-0.0796 z M 67.88985,187.21893 c -2.031296,2e-4 -3.677936,1.64684 -3.678138,3.67814 2e-6,37.55587 30.524082,68.07996 68.079948,68.07996 37.55586,0 68.07996,-30.5241 68.07996,-68.07996 -2e-4,-2.0313 -1.64684,-3.67794 -3.67814,-3.67814 z"
       inkscape:connector-curvature="0" />
  </g>
</svg>
